# xmcd
#
# Track frame offsets:
#	150
#	15327
#	27895
#	45805
#	65020
#	76897
#	94185
#	111142
#	126697
#	142802
#	160047
#	177117
#	199087
#	224322
#	237050
#	260542
#	275387
#	286100
#	302780
#	317117
#
# Disc length: 4490 seconds
#
# Revision: 0
# Processed by: cddbd v1.5.2PL0 Copyright (c) Steve Scherf et al.
# Submitted via: EasyCDDAExtractor 15.3.0.1
#
DISCID=0c118814
DTITLE=Reg Lindsay - Good Old Country Singalong
DYEAR=1992
DGENRE=Country
TTITLE0=Medley - Do what you do, do well-I'm a fool to care-​Singing the blues 
TTITLE1=Medley -  Beautiful Queensland-Along the road to Gundagai-Wrap me up wi
TTITLE1=th my stockwhip and blanket  
TTITLE2=Medley - Sugar time-Tumbling tumbleweeds  
TTITLE3=Medley - Invisible tears-​Careless hands-Tennessee waltz 
TTITLE4=Medley - There's a goldmine in the sky-​Let the rest of the world go by
TTITLE5=Medley - Ninety nine ways-​Wings of a dove-She'll be coming round the m
TTITLE5=ountain 
TTITLE6=Medley - Red river valley-Candy kisses-Ev'rybody's somebody's fool 
TTITLE7=Medley - Tie me kangaroo down sport-​Click go the shears-Waltzing Matid
TTITLE7=a 
TTITLE8=Medley - Have you ever been lonely-​Caribbean 
TTITLE9=Medley - Heartachs by the number-​Mexicali Rose-Wabash cannon ball 
TTITLE10=Medley - Bluebird on your windowsill-​Send me the pillow you dream on-
TTITLE10=​Chatanoogie shoeshine boy 
TTITLE11=Medley - When my blue moon turns to gold again-​I'm thinking tonight o
TTITLE11=f my blue eyes-​Gotta travel on 
TTITLE12=Medley - You are my sunshine-​Home on the range-​Sioux city Sue 
TTITLE13=Medley - Walking the floor over you-​Mocking Bird Hill 
TTITLE14=Medley - Yellow rose of Texas-Beautiful brown eyes-​Cold cold heart 
TTITLE15=Medley - Just because-​A fool such as I-Oh lonesome me 
TTITLE16=Medley - A worried mind-​China doll 
TTITLE17=Medley - Honey be my honey bee-​Down the trail of broken hearts-​Dear 
TTITLE17=hearts and gentle people 
TTITLE18=Medley - The blue tail fly-​Any time 
TTITLE19=Medley - Big rock candy mountain-​Nobody's darling but mine-Slipping a
TTITLE19=round
EXTD=
EXTT0=
EXTT1=
EXTT2=
EXTT3=
EXTT4=
EXTT5=
EXTT6=
EXTT7=
EXTT8=
EXTT9=
EXTT10=
EXTT11=
EXTT12=
EXTT13=
EXTT14=
EXTT15=
EXTT16=
EXTT17=
EXTT18=
EXTT19=
PLAYORDER=
